# xmcd
#
# Track frame offsets: 
#        150
#        16094
#        36990
#        54537
#        69547
#        87464
#        99252
#        117674
#        136485
#
# Disc length: 2137 seconds
#
# Revision: 1
# Processed by: cddbd v1.5.2PL0 Copyright (c) Steve Scherf et al.
# Submitted via: ExactAudioCopy v0.99pb5
#
DISCID=79085709
DTITLE=Poul Halberg Powertrio - PsychElectric Journey
DYEAR=2008
DGENRE=Rock
TTITLE0=Tales Of Brave Ulysses
TTITLE1=Dear Prudence
TTITLE2=Dolly Dagger
TTITLE3=Badge
TTITLE4=Can't Find My Way Home
TTITLE5=Hello I Love You
TTITLE6=Purple Haze
TTITLE7=Power Of Love
TTITLE8=Change The World
EXTD=
EXTT0=
EXTT1=
EXTT2=
EXTT3=
EXTT4=
EXTT5=
EXTT6=
EXTT7=
EXTT8=
PLAYORDER=
